# Blender v2.83.0 OBJ File: 'blocks.blend'
# www.blender.org
# Birch Log - X axis orientation
# Left/Right ends: Grid (0, 11) - Birch wood rings
# Other sides: Grid (1, 11) - Birch bark
o Birch_Log_X_Cube
v 1.000000 1.000000 1.000000
v 1.000000 0.000000 1.000000
v 0.000000 1.000000 1.000000
v 0.000000 0.000000 1.000000
v 1.000000 1.000000 0.000000
v 1.000000 0.000000 0.000000
v 0.000000 1.000000 0.000000
v 0.000000 0.000000 0.000000
vt 0.0625 0.3125
vt 0.1250 0.3125
vt 0.1250 0.2500
vt 0.0625 0.2500
vt 0.0625 0.3125
vt 0.0625 0.2500
vt 0.0000 0.2500
vt 0.0000 0.3125
vt 0.0625 0.3125
vt 0.1250 0.3125
vt 0.1250 0.2500
vt 0.0625 0.2500
vt 0.0625 0.3125
vt 0.1250 0.3125
vt 0.1250 0.2500
vt 0.0625 0.2500
vt 0.0625 0.3125
vt 0.0625 0.2500
vt 0.0000 0.2500
vt 0.0000 0.3125
vt 0.0625 0.3125
vt 0.0625 0.2500
vn 0.0000 1.0000 0.0000
vn -1.0000 0.0000 0.0000
vn 0.0000 0.0000 -1.0000
vn 0.0000 -1.0000 0.0000
vn 0.0000 0.0000 1.0000
vn 1.0000 0.0000 0.0000
s off
f 1/1/1 5/2/1 7/3/1 3/4/1
f 4/5/2 3/6/2 7/7/2 8/8/2
f 8/9/3 7/10/3 5/11/3 6/12/3
f 6/13/4 2/14/4 4/15/4 8/16/4
f 2/17/5 1/4/5 3/18/5 4/19/5
f 6/20/6 5/21/6 1/22/6 2/12/6
