# Blender v2.83.0 OBJ File: 'blocks.blend'
# www.blender.org
# Multi-texture pumpkin block
# Top: (15,0) | Sides: (15,1) | Bottom: (15,2)
o Pumpkin_Cube
v 1.000000 1.000000 1.000000
v 1.000000 0.000000 1.000000
v 0.000000 1.000000 1.000000
v 0.000000 0.000000 1.000000
v 1.000000 1.000000 0.000000
v 1.000000 0.000000 0.000000
v 0.000000 1.000000 0.000000
v 0.000000 0.000000 0.000000
# Face 1 (TOP) - pumpkin_top (15,0)
vt 0.9375 1.0000
vt 1.0000 1.0000
vt 1.0000 0.9375
vt 0.9375 0.9375
# Face 2 (LEFT) - pumpkin_side (15,1)
vt 0.9375 0.9375
vt 1.0000 0.9375
vt 1.0000 0.8750
vt 0.9375 0.8750
# Face 3 (BACK) - pumpkin_side (15,1)
vt 0.9375 0.9375
vt 1.0000 0.9375
vt 1.0000 0.8750
vt 0.9375 0.8750
# Face 4 (FRONT) - pumpkin_side (15,1)
vt 0.9375 0.9375
vt 1.0000 0.9375
vt 1.0000 0.8750
vt 0.9375 0.8750
# Face 5 (RIGHT) - pumpkin_side (15,1)
vt 0.9375 0.9375
vt 1.0000 0.9375
vt 1.0000 0.8750
vt 0.9375 0.8750
# Face 6 (BOTTOM) - pumpkin_bottom (15,2)
vt 0.9375 0.8750
vt 1.0000 0.8750
vt 1.0000 0.8125
vt 0.9375 0.8125
vn 0.0000 1.0000 0.0000
vn -1.0000 0.0000 0.0000
vn 0.0000 0.0000 -1.0000
vn 0.0000 -1.0000 0.0000
vn 0.0000 0.0000 1.0000
vn 1.0000 0.0000 0.0000
s off
f 1/1/1 5/2/1 7/3/1 3/4/1
f 4/5/2 3/6/2 7/7/2 8/8/2
f 8/9/3 7/10/3 5/11/3 6/12/3
f 6/13/4 2/14/4 4/15/4 8/16/4
f 2/17/5 1/18/5 3/19/5 4/20/5
f 6/21/6 5/22/6 1/23/6 2/24/6
